#!OML:ASF I:\Actors\actors\Patient Classification 2\Patient 1\Session 1\actor1.ASF
:FULLY-SPECIFIED
:DEGREES
434
root -0.601173 18.702 5.71255 2.61819 1.92626 -1.39283
lowerback 4.70665 0.813085 -1.62276
upperback -3.86351 1.03662 1.17136
thorax -6.72317 0.619864 2.02584
lowerneck -11.4376 -3.02665 -4.27891
upperneck 38.8831 -4.37614 2.54289
head 15.8524 -2.1176 1.14743
rclavicle -1.48064e-014 -8.00108e-015
rhumerus -55.5951 54.3662 -95.6583
rradius 128.935
rwrist -36.8553
rhand 4.91929 -31.0825
rfingers 7.12502
rthumb 30.293 -58.6163
lclavicle -1.48064e-014 -8.00108e-015
lhumerus -47.4487 -32.3405 67.222
lradius 99.5553
lwrist 35.0265
lhand 22.9287 -4.64867
lfingers 7.12502
lthumb 47.253 17.9053
rfemur 0 0 0
rtibia 0
rfoot 0 0
rtoes 0
lfemur -5.8517 -8.06753 -12.912
ltibia 21.9548
lfoot -24.4634 17.0152
ltoes -54.9142
435
root -0.588817 18.7006 5.71516 2.60307 2.27946 -1.32034
lowerback 4.65573 0.759443 -1.54006
upperback -3.80242 0.967763 1.10954
thorax -6.62237 0.578876 1.92257
lowerneck -11.2667 -3.04594 -4.23325
upperneck 39.0495 -4.49077 2.70006
head 15.9064 -2.13806 1.19271
rclavicle -6.21202e-018 -1.42628e-014
rhumerus -59.1681 51.9619 -97.8617
rradius 126.228
rwrist -35.5494
rhand 4.96316 -32.1562
rfingers 7.12502
rthumb 30.3348 -59.6824
lclavicle -6.21202e-018 -1.42628e-014
lhumerus -50.7615 -34.2171 73.2023
lradius 100.93
lwrist 31.02
lhand 25.1449 -5.80223
lfingers 7.12502
lthumb 49.2942 15.7834
rfemur 0 0 0
rtibia 0
rfoot 0 0
rtoes 0
lfemur -5.97364 -7.99927 -12.9858
ltibia 22.0492
lfoot -24.3047 16.6832
ltoes -54.9834
436
root -0.579429 18.6988 5.7185 2.54193 2.5847 -1.34002
lowerback 4.7248 0.649621 -1.40372
upperback -3.78246 0.826591 1.04902
thorax -6.63082 0.501121 1.79686
lowerneck -11.0336 -3.01944 -3.84232
upperneck 39.2026 -4.53157 2.58445
head 15.9131 -2.11535 1.07079
rclavicle 1.60689e-014 7.25564e-015
rhumerus -61.923 49.6528 -99.5056
rradius 123.345
rwrist -34.148
rhand 5.0751 -33.6265
rfingers 7.12502
rthumb 30.4416 -61.1329
lclavicle 1.60689e-014 7.25564e-015
lhumerus -54.2341 -35.7701 78.9761
lradius 101.775
lwrist 27.7389
lhand 24.4501 -6.81137
lfingers 7.12502
lthumb 48.6558 15.0896
rfemur 0 0 0
rtibia 0
rfoot 0 0
rtoes 0
lfemur -6.01119 -8.14516 -12.9815
ltibia 22.1295
lfoot -24.2618 16.5136
ltoes -55.0227
437
root -0.572483 18.6964 5.72431 2.42174 2.84455 -1.40976
lowerback 4.87458 0.507147 -1.21623
upperback -3.78438 0.642728 0.948615
thorax -6.70716 0.399544 1.60498
lowerneck -10.7627 -2.94755 -3.32598
upperneck 39.397 -4.54359 2.47583
head 15.9266 -2.06184 0.934863
rclavicle 2.86064e-015 -9.23106e-015
rhumerus -64.0326 47.3157 -100.766
rradius 120.224
rwrist -32.7076
rhand 5.37364 -35.3386
rfingers 7.12502
rthumb 30.7263 -62.7919
lclavicle 2.86064e-015 -9.23106e-015
lhumerus -57.6449 -36.5992 84.0714
lradius 102.229
lwrist 26.591
lhand 23.7326 -6.69734
lfingers 7.12502
lthumb 47.9951 15.5178
rfemur 0 0 0
rtibia 0
rfoot 0 0
rtoes 0
lfemur -5.95224 -8.34755 -12.9282
ltibia 22.1819
lfoot -24.297 16.3734
ltoes -54.9774
438
root -0.566621 18.6944 5.73425 2.3818 2.95688 -1.39987
lowerback 4.89107 0.379028 -1.0865
upperback -3.8124 0.471722 0.795204
thorax -6.7367 0.305399 1.38989
lowerneck -10.4034 -2.85553 -2.71202
upperneck 39.5514 -4.49387 2.22631
head 15.8874 -1.98831 0.731202
rclavicle -1.23961e-014 -7.28049e-015
rhumerus -65.7169 44.9748 -101.671
rradius 116.902
rwrist -31.2754
rhand 6.77438 -37.7289
rfingers 7.12502
rthumb 32.0609 -64.9226
lclavicle -1.23961e-014 -7.28049e-015
lhumerus -60.9671 -36.4458 88.3319
lradius 102.649
lwrist 26.7638
lhand 24.8575 -3.42088
lfingers 7.12502
lthumb 49.0303 18.2965
rfemur 0 0 0
rtibia 0
rfoot 0 0
rtoes 0
lfemur -5.92037 -8.40921 -12.9555
ltibia 22.1995
lfoot -24.3459 16.2646
ltoes -54.9375
439
root -0.564338 18.6919 5.74924 2.38235 2.92955 -1.37559
lowerback 4.84789 0.268727 -0.967953
upperback -3.89996 0.321331 0.595681
thorax -6.79718 0.221154 1.13098
lowerneck -9.82286 -2.86392 -1.79591
upperneck 39.6483 -4.54149 1.62824
head 15.7462 -1.96166 0.31081
rclavicle 6.89534e-016 5.06901e-015
rhumerus -67.3139 42.6646 -102.402
rradius 113.51
rwrist -30.0945
rhand 7.86227 -39.662
rfingers 7.12502
rthumb 33.0961 -66.6419
lclavicle 6.89534e-016 5.06901e-015
lhumerus -63.948 -35.2612 91.3659
lradius 103.085
lwrist 28.0451
lhand 26.2542 -1.5549
lfingers 7.12502
lthumb 50.3101 19.5035
rfemur 0 0 0
rtibia 0
rfoot 0 0
rtoes 0
lfemur -5.84997 -8.20939 -12.9753
ltibia 22.1546
lfoot -24.2796 16.1111
ltoes -55.0542
440
root -0.570255 18.6859 5.77208 2.17909 2.95035 -1.36206
lowerback 4.93204 0.138615 -0.966116
upperback -3.94615 0.135206 0.418382
thorax -6.88907 0.12529 0.964615
lowerneck -9.18083 -3.08069 -0.904498
upperneck 39.8544 -4.88405 0.99052
head 15.6507 -2.06903 -0.1652
rclavicle 2.01269e-015 5.96354e-015
rhumerus -68.8151 40.4242 -102.795
rradius 110.167
rwrist -29.2216
rhand 9.22615 -41.1485
rfingers 7.12502
rthumb 34.392 -67.8444
lclavicle 2.01269e-015 5.96354e-015
lhumerus -66.6237 -33.485 93.464
lradius 103.352
lwrist 28.5592
lhand 27.2008 -1.07443
lfingers 7.12502
lthumb 51.1736 19.5096
rfemur 0 0 0
rtibia 0
rfoot 0 0
rtoes 0
lfemur -5.5455 -7.84193 -12.9516
ltibia 22.1503
lfoot -24.1345 15.7394
ltoes -55.2269
441
root -0.596773 18.6835 5.80788 2.28944 2.67147 -1.3007
lowerback 4.48676 0.147485 -1.48289
upperback -4.00316 0.11037 0.394639
thorax -6.69382 0.136259 1.23251
lowerneck -9.54322 -2.9312 -3.07992
upperneck 41.3316 -5.01527 3.18063
head 16.7094 -2.14463 1.15728
rclavicle 1.30452e-015 -5.36719e-015
rhumerus -70.1333 38.3424 -102.613
rradius 107.095
rwrist -28.4856
rhand 10.6339 -42.8254
rfingers 7.12502
rthumb 35.7273 -69.2084
lclavicle 1.30452e-015 -5.36719e-015
lhumerus -68.7232 -31.4334 94.7521
lradius 103.34
lwrist 28.8609
lhand 28.6454 -0.953209
lfingers 7.12502
lthumb 52.485 18.8599
rfemur 0 0 0
rtibia 0
rfoot 0 0
rtoes 0
lfemur -5.44649 -7.10218 -12.8659
ltibia 22.1258
lfoot -24.0417 15.2669
ltoes -55.301
442
root -0.537869 18.6833 5.80158 2.13151 2.7932 -1.27285
lowerback 4.92809 0.0649273 -0.682735
upperback -4.10549 0.0440692 0.182092
thorax -7.05304 0.061317 0.568585
lowerneck -8.96991 -2.95901 -3.14815
upperneck 41.5754 -5.0385 3.11599
head 16.702 -2.18173 1.14816
rclavicle 2.85753e-016 -1.78906e-015
rhumerus -71.5915 36.4159 -102.147
rradius 104.638
rwrist -28.1295
rhand 9.68968 -44.7809
rfingers 7.12502
rthumb 34.832 -71.376
lclavicle 2.85753e-016 -1.78906e-015
lhumerus -70.366 -29.3705 95.5094
lradius 103.024
lwrist 29.5319
lhand 30.061 -1.07164
lfingers 7.12502
lthumb 53.7618 17.9262
rfemur 0 0 0
rtibia 0
rfoot 0 0
rtoes 0
lfemur -5.30251 -7.96716 -13.1896
ltibia 22.0802
lfoot -24.3158 15.8436
ltoes -55.0541
443
root -0.534533 18.6808 5.82308 2.15499 2.61173 -1.25303
lowerback 4.82021 0.160486 -0.853506
upperback -4.1968 0.160762 0.20958
thorax -7.09056 0.1286 0.680464
lowerneck -8.36074 -3.02351 -3.31251
upperneck 41.8476 -5.13667 3.15484
head 16.7146 -2.25047 1.19219
rclavicle 1.57785e-015 1.19271e-015
rhumerus -73.1571 34.5658 -101.523
rradius 102.686
rwrist -28.3692
rhand 6.94757 -45.912
rfingers 7.12502
rthumb 32.2258 -73.0724
lclavicle 1.57785e-015 1.19271e-015
lhumerus -71.7273 -27.4175 95.8157
lradius 102.476
lwrist 31.1126
lhand 29.837 -0.900025
lfingers 7.12502
lthumb 53.5603 18.231
rfemur 0 0 0
rtibia 0
rfoot 0 0
rtoes 0
lfemur -5.17943 -7.89093 -13.2311
ltibia 22.0424
lfoot -24.4047 15.8322
ltoes -55.0146
444
root -0.553062 18.6824 5.83729 2.48363 0.731425 -1.24368
lowerback 4.48099 0.875922 -1.51972
upperback -4.36931 1.07872 0.335745
thorax -7.11229 0.619076 1.08904
lowerneck -7.83022 -3.10323 -3.35045
upperneck 42.1571 -5.19367 2.96301
head 16.752 -2.30985 1.11622
rclavicle 1.85864e-014 6.95746e-015
rhumerus -74.4699 32.737 -100.628
rradius 100.885
rwrist -29.3465
rhand 5.77899 -46.9645
rfingers 7.12502
rthumb 31.1127 -74.3444
lclavicle 1.85864e-014 6.95746e-015
lhumerus -72.8213 -25.5709 95.7407
lradius 101.743
lwrist 33.5735
lhand 27.2154 -0.390349
lfingers 7.12502
lthumb 51.1869 20.1861
rfemur 0 0 0
rtibia 0
rfoot 0 0
rtoes 0
lfemur -5.01759 -7.40867 -13.4106
ltibia 22.0382
lfoot -25.3123 16.8026
ltoes -54.7325
445
root -0.551221 18.6804 5.85332 2.50378 0.357738 -1.24943
lowerback 4.35702 1.10512 -1.66152
upperback -4.38713 1.37979 0.377984
thorax -7.07437 0.775781 1.18252
lowerneck -7.4316 -3.21657 -3.25522
upperneck 42.4735 -5.21821 2.49885
head 16.8084 -2.36732 0.896369
rclavicle -2.32205e-014 5.96354e-015
rhumerus -75.3886 30.9143 -99.5572
rradius 99.0686
rwrist -31.1916
rhand 6.48845 -48.7546
rfingers 7.12502
rthumb 31.7886 -76.0027
lclavicle -2.32205e-014 5.96354e-015
lhumerus -73.6056 -23.7623 95.3338
lradius 100.871
lwrist 36.5005
lhand 24.5248 0.251529
lfingers 7.12502
lthumb 48.7245 22.1191
rfemur 0 0 0
rtibia 0
rfoot 0 0
rtoes 0
lfemur -4.85071 -7.49137 -13.4828
ltibia 21.9825
lfoot -25.562 17.1487
ltoes -54.7314
446
root -0.550939 18.6788 5.86721 2.47543 0.264341 -1.24191
lowerback 4.22479 1.24876 -1.75462
upperback -4.33882 1.56952 0.404547
thorax -6.95672 0.873689 1.24572
lowerneck -7.12287 -3.32842 -3.24981
upperneck 42.8069 -5.2793 2.19159
head 16.9107 -2.43161 0.75516
rclavicle -5.24295e-015 -2.98177e-015
rhumerus -75.9846 29.1716 -98.5054
rradius 97.1831
rwrist -33.5538
rhand 7.40385 -50.7838
rfingers 7.12502
rthumb 32.66 -77.8551
lclavicle -5.24295e-015 -2.98177e-015
lhumerus -74.0921 -22.0605 94.716
lradius 99.8408
lwrist 39.4952
lhand 22.676 0.814596
lfingers 7.12502
lthumb 47.0193 23.4723
rfemur 0 0 0
rtibia 0
rfoot 0 0
rtoes 0
lfemur -4.71798 -7.52674 -13.5156
ltibia 21.9433
lfoot -25.6004 17.224
ltoes -54.6832
447
root -0.55031 18.6764 5.87553 2.38621 0.246155 -1.29116
lowerback 4.21644 1.34989 -1.72247
upperback -4.28534 1.70907 0.424133
thorax -6.89972 0.94063 1.23457
lowerneck -6.83802 -3.39167 -3.26739
upperneck 43.1391 -5.34679 2.09587
head 17.0305 -2.47419 0.711613
rclavicle -1.92697e-014 -1.78906e-015
rhumerus -76.4379 27.6534 -97.7454
rradius 95.2211
rwrist -35.8425
rhand 7.68495 -52.5036
rfingers 7.12502
rthumb 32.9274 -79.5191
lclavicle -1.92697e-014 -1.78906e-015
lhumerus -74.4093 -20.5473 94.0785
lradius 99.2444
lwrist 42.761
lhand 20.5903 4.05145
lfingers 7.12502
lthumb 45.0846 27.5176
rfemur 0 0 0
rtibia 0
rfoot 0 0
rtoes 0
lfemur -4.58964 -7.47294 -13.4712
ltibia 21.9549
lfoot -25.5938 17.1512
ltoes -54.6444
448
root -0.549174 18.6719 5.87975 2.2075 0.27629 -1.36048
lowerback 4.36217 1.40203 -1.58628
upperback -4.21242 1.78553 0.401167
thorax -6.90369 0.970224 1.12388
lowerneck -6.61581 -3.41956 -3.2185
upperneck 43.4433 -5.39455 2.04796
head 17.1498 -2.49172 0.679118
rclavicle -9.36773e-015 -5.96354e-016
rhumerus -76.7613 26.4343 -97.4363
rradius 93.261
rwrist -37.8863
rhand 7.60755 -53.7015
rfingers 7.12502
rthumb 32.8538 -80.7324
lclavicle -9.36773e-015 -5.96354e-016
lhumerus -74.5532 -19.2978 93.5064
lradius 98.2887
lwrist 45.7419
lhand 18.4812 5.60403
lfingers 7.12502
lthumb 43.1177 29.8082
rfemur 0 0 0
rtibia 0
rfoot 0 0
rtoes 0
lfemur -4.39923 -7.31612 -13.3985
ltibia 21.9659
lfoot -25.5236 17.0142
ltoes -54.8047
